<?xml version="1.0" standalone="no"?>
<!DOCTYPE svg PUBLIC "-//W3C//DTD SVG 20010904//EN"
 "http://www.w3.org/TR/2001/REC-SVG-20010904/DTD/svg10.dtd">
<svg version="1.0" xmlns="http://www.w3.org/2000/svg"
 width="1030.000000pt" height="1030.000000pt" viewBox="0 0 1030.000000 1030.000000"
 preserveAspectRatio="xMidYMid meet">
<metadata>
Created by potrace 1.14, written by Peter Selinger 2001-2017
</metadata>
<g transform="translate(0.000000,1030.000000) scale(0.100000,-0.100000)"
fill="#000000" stroke="none">
<path d="M8343 6985 c0 -33 2 -45 4 -27 2 18 2 45 0 60 -2 15 -4 0 -4 -33z"/>
<path d="M8338 6913 c-2 -5 -1 -30 3 -58 l6 -50 1 58 c2 52 -2 69 -10 50z"/>
<path d="M8338 6793 c-2 -5 -1 -30 3 -58 l6 -50 1 58 c2 52 -2 69 -10 50z"/>
<path d="M2116 6695 c-3 -11 -6 -714 -6 -1562 0 -1460 1 -1542 18 -1547 9 -3
32 -4 50 -2 18 1 35 -1 38 -6 3 -5 11 -5 17 -1 19 12 157 10 157 -2 0 -7 3 -7
8 0 4 6 39 11 77 11 39 0 73 -5 77 -11 5 -7 8 -7 8 0 0 12 98 14 117 2 6 -4
14 -4 17 1 6 9 147 9 162 0 6 -4 14 -4 18 0 12 11 136 9 136 -3 0 -7 3 -7 8 0
9 13 172 14 172 2 0 -5 7 -4 15 3 12 10 15 10 15 -1 0 -9 3 -10 8 -4 9 14 145
14 154 0 5 -7 8 -7 8 0 0 14 252 14 262 0 5 -7 8 -7 8 0 0 12 118 14 136 3 6
-4 14 -4 18 0 12 11 156 9 156 -3 0 -7 3 -7 8 0 6 9 145 13 155 5 6 -5 48 -6
52 -1 5 9 147 7 162 -2 6 -4 14 -4 17 1 4 7 183 9 211 2 6 -1 12 -1 15 0 15 6
143 4 147 -3 2 -4 10 -4 16 0 17 11 88 11 110 1 9 -5 17 -5 17 -1 0 10 180 10
196 1 6 -4 14 -4 18 -1 11 11 46 10 46 -1 0 -7 3 -8 8 -1 4 6 23 10 42 10 19
-1 40 0 45 2 7 2 10 151 9 451 0 246 -1 453 -2 460 -2 15 -78 17 -87 2 -3 -6
-6 -190 -6 -410 0 -259 -3 -402 -10 -406 -7 -4 -2573 -8 -2909 -4 l-25 0 2
1447 c2 797 3 1450 4 1453 1 3 1 12 0 22 -2 15 56 16 751 18 414 0 760 1 768
1 137 -1 867 -1 928 0 46 0 86 -1 88 -4 3 -3 18 -1 34 3 16 4 31 6 34 3 3 -3
80 -5 171 -4 l165 1 -1 -278 c0 -152 0 -339 0 -415 l1 -138 48 3 47 3 1 453
c0 292 -3 455 -10 459 -5 4 -708 7 -1562 7 -1545 1 -1553 1 -1558 -19z"/>
<path d="M8338 6673 c-2 -5 -1 -30 3 -58 l6 -50 1 58 c2 52 -2 69 -10 50z"/>
<path d="M8340 6559 c-6 -49 -3 -1789 3 -1789 8 0 8 63 7 1084 0 385 -3 702
-5 705 -3 2 -5 2 -5 0z"/>
<path d="M5225 5663 c-44 -14 -83 -30 -87 -37 -4 -6 -8 -7 -8 -3 0 13 -92 -54
-144 -105 -26 -26 -44 -48 -40 -48 5 0 2 -6 -6 -13 -44 -36 -91 -174 -95 -279
-2 -36 -6 -71 -10 -77 -3 -6 -1 -11 5 -11 6 0 10 -8 9 -17 -1 -10 4 -38 11
-63 8 -25 14 -48 14 -52 1 -3 4 -10 9 -14 4 -4 7 -16 7 -26 0 -10 3 -18 8 -18
4 0 13 -14 21 -30 13 -31 120 -145 156 -167 30 -19 114 -63 120 -63 3 0 10 -2
17 -4 77 -25 260 -38 286 -22 4 2 27 7 52 11 24 4 51 10 60 15 8 4 17 8 20 8
29 3 160 80 161 95 4 35 5 384 1 395 -5 14 -88 17 -97 3 -3 -6 -6 -88 -7 -183
l-1 -173 -40 -23 c-21 -12 -62 -29 -91 -37 -55 -16 -216 -26 -216 -13 0 4 -6
5 -14 2 -36 -14 -170 50 -238 114 -94 87 -139 200 -133 330 4 95 10 121 41
190 44 97 140 178 269 227 36 14 187 20 235 10 14 -3 35 -7 46 -9 37 -7 130
-55 149 -76 10 -11 29 -20 43 -20 14 0 22 3 19 7 -4 3 2 12 13 20 32 23 23 46
-33 83 -107 73 -173 92 -317 95 -98 2 -127 -1 -195 -22z"/>
<path d="M6198 5682 c-52 -2 -78 -7 -79 -15 -6 -54 -4 -1025 2 -1037 6 -13 41
-15 246 -14 308 2 348 8 473 68 25 11 47 24 48 29 2 4 9 7 16 7 19 0 113 97
142 145 63 108 86 231 70 375 -4 41 -26 109 -46 144 -10 18 -24 44 -32 57 -12
22 -106 119 -140 144 -7 6 -33 19 -58 30 -25 11 -48 24 -52 30 -4 5 -8 7 -8 3
0 -4 -12 -3 -27 3 -34 13 -60 18 -143 25 -81 6 -309 10 -412 6z m450 -105 c54
-8 122 -29 122 -38 0 -5 9 -9 20 -9 11 0 20 -5 20 -12 0 -6 3 -9 6 -5 5 5 19
-5 79 -60 25 -23 76 -97 79 -115 1 -7 5 -19 9 -25 15 -24 20 -59 23 -153 2
-78 -2 -107 -21 -163 -21 -60 -96 -177 -114 -177 -4 0 -16 -8 -27 -19 -26 -24
-47 -35 -119 -61 -53 -20 -85 -23 -277 -27 -207 -5 -218 -4 -219 13 0 25 0
824 0 844 1 14 26 16 194 14 105 -1 207 -4 225 -7z"/>
<path d="M3495 5422 c-49 -9 -115 -35 -145 -57 -42 -31 -85 -95 -100 -151 -11
-38 -16 -44 -40 -44 -15 0 -29 -3 -33 -6 -12 -12 6 -34 28 -34 28 0 41 -15 50
-57 6 -28 51 -101 79 -128 44 -42 123 -69 191 -66 55 2 137 36 173 70 32 31
70 95 76 125 10 53 17 64 48 70 47 9 116 7 123 -4 4 -6 10 -8 15 -5 4 3 11
-12 15 -32 26 -140 166 -242 301 -221 31 5 73 17 94 28 41 21 123 107 114 121
-3 5 -1 9 4 9 5 0 13 19 18 43 5 23 15 43 22 43 6 1 21 2 31 3 22 1 37 30 18
36 -6 2 -24 6 -39 9 -21 5 -28 12 -28 29 0 26 -61 133 -88 153 -28 22 -83 46
-132 59 -50 13 -119 2 -175 -27 -38 -20 -106 -84 -98 -92 4 -3 1 -6 -6 -6 -7
0 -10 -4 -6 -9 3 -5 -2 -16 -10 -25 -8 -8 -15 -19 -14 -23 1 -4 -2 -18 -6 -30
-5 -16 -13 -20 -28 -17 -22 5 -92 5 -136 1 -20 -2 -26 5 -39 46 -28 89 -117
164 -217 185 -22 4 -49 6 -60 4z m131 -72 c24 -12 44 -26 44 -31 0 -6 11 -20
24 -32 49 -47 62 -153 27 -233 -37 -83 -125 -134 -223 -130 -161 8 -258 180
-184 328 56 114 191 156 312 98z m711 6 c16 -8 38 -19 50 -25 12 -5 24 -19 28
-30 3 -12 10 -21 15 -21 13 0 32 -61 37 -118 5 -52 -20 -142 -38 -142 -5 0 -9
-6 -9 -12 0 -7 -17 -25 -38 -39 -152 -108 -353 -16 -365 166 -2 37 14 115 24
115 6 0 7 5 4 10 -3 6 -1 10 4 10 6 0 11 6 11 13 0 18 78 73 121 85 46 12 122
7 156 -12z"/>
<path d="M3460 5318 c0 -4 -8 -8 -18 -8 -20 0 -62 -35 -62 -51 0 -6 -4 -8 -9
-5 -5 3 -12 -4 -16 -17 -11 -32 -12 -37 -15 -39 -1 -2 -3 -13 -4 -26 -2 -18 2
-22 17 -20 11 2 21 11 23 21 6 41 51 93 91 105 27 8 39 17 40 32 1 15 -4 19
-23 18 -13 -1 -24 -6 -24 -10z"/>
<path d="M4174 5314 c-59 -25 -122 -112 -108 -149 8 -20 33 -19 40 3 19 57 30
74 63 94 20 13 40 22 45 20 10 -3 26 17 26 35 0 14 -26 13 -66 -3z"/>
<path d="M8339 4748 c-4 -98 -3 -138 4 -138 4 0 7 34 7 75 0 41 -2 75 -5 75
-3 0 -5 -6 -6 -12z"/>
<path d="M8338 4555 c-2 -25 0 -45 4 -45 5 0 8 20 8 45 0 25 -2 45 -4 45 -2 0
-6 -20 -8 -45z"/>
<path d="M8338 4475 c-3 -14 -1 -28 3 -31 5 -3 9 9 9 25 0 38 -6 40 -12 6z"/>
<path d="M8338 4385 c2 -14 6 -25 8 -25 2 0 4 11 4 25 0 14 -4 25 -9 25 -4 0
-6 -11 -3 -25z"/>
<path d="M8342 4330 c0 -14 2 -19 5 -12 2 6 2 18 0 25 -3 6 -5 1 -5 -13z"/>
<path d="M8336 4287 c3 -10 9 -15 12 -12 3 3 0 11 -7 18 -10 9 -11 8 -5 -6z"/>
</g>
</svg>
